<svg aria-hidden="true" style="position:absolute;width:0;height:0" xmlns="http://www.w3.org/2000/svg" overflow="hidden">
  <defs>
    <symbol id="icon-antenna" viewBox="0 0 32 32">
      <path fill="var(--color1, #212121)" d="M30.773 22.098l-8.443-8.505.937-4.615c.242.094.499.144.758.146h.006c1.192.014 2.17-.941 2.184-2.133s-.941-2.17-2.133-2.184c-1.192-.014-2.17.941-2.184 2.133-.003.255.039.509.125.749l-4.96.605L8.972.161a.53404.53404 0 00-.377-.16c-.14.001-.274.056-.373.155L6.709 1.66c-.208.208-.208.546 0 .754l.814.826C4.37 9.038 5.394 16.218 10.042 20.903c.043.041.092.074.146.098-.034.18-.051.364-.052.547v6.187h-6.4c-1.472.002-2.665 1.195-2.667 2.667v1.067c0 .295.239.533.533.533h24.533c.295 0 .533-.239.533-.533v-1.067c-.002-1.472-1.195-2.665-2.667-2.667h-6.4v-2.742c1.003.21 2.024.317 3.049.32 2.458-.003 4.877-.615 7.04-1.783l.818.823c.099.101.235.159.377.16.14-.001.274-.056.373-.155l1.513-1.504c.208-.208.208-.546 0-.754zM23.28 6.233c.418-.415 1.093-.414 1.508.004s.414 1.093-.004 1.508c-.2.199-.47.31-.752.31h-.003c-.589-.003-1.064-.483-1.061-1.072.002-.282.115-.552.314-.751h-.002zm-1.256 3.505l-.598 2.946-1.175-1.182 1.774-1.763zm-.605-.902l-1.92 1.909-1.485-1.493 3.405-.415zM24.004 28.8c.884 0 1.6.716 1.6 1.6v.533H2.137V30.4c0-.884.716-1.6 1.6-1.6h20.267zm-7.467-2.133v1.067h-5.333v-1.067h5.333zM11.204 25.6v-4.053c0-1.294 1.196-2.347 2.667-2.347s2.667 1.053 2.667 2.347V25.6h-5.333zm6.4-1.696v-2.357c0-1.882-1.675-3.413-3.733-3.413-1.331-.02-2.576.657-3.281 1.786C6.532 15.646 5.619 9.275 8.311 4.033l18.602 18.708c-2.872 1.461-6.165 1.873-9.309 1.163zm11.289-.684L7.836 2.039l.755-.752 7.935 7.98c.004 0 .006.007.01.01l13.115 13.191-.757.752z"/>
      <path fill="var(--color2, #2196f3)" d="M13.876 20.267h-.005c-.884-.001-1.601.714-1.602 1.598s.714 1.601 1.598 1.602h.005c.884.001 1.601-.714 1.602-1.598s-.714-1.601-1.598-1.602zm.373 1.978c-.1.1-.236.156-.378.155-.295-.002-.532-.241-.531-.536.001-.141.057-.276.157-.375s.233-.154.373-.155c.295.002.532.241.53.536-.001.141-.057.276-.157.375h.005z"/>
    </symbol>
    <symbol id="icon-astronaut" viewBox="0 0 32 32">
      <path fill="var(--color2, #2196f3)" d="M31.974 4.524c-.063-.193-.229-.333-.43-.363l-1.91-.278-.855-1.731c-.179-.365-.777-.365-.956 0l-.855 1.731-1.91.278c-.201.029-.367.17-.431.363-.062.193-.011.405.135.547l1.383 1.348-.326 1.903c-.034.2.048.402.212.522.166.121.382.135.562.04l1.709-.899 1.709.899c.078.041.164.061.249.061.11 0 .221-.034.314-.102.164-.119.246-.322.212-.522l-.326-1.903 1.383-1.348c.145-.142.197-.354.135-.547zm-2.463 1.327c-.125.122-.183.299-.153.472l.191 1.114-1-.526c-.078-.041-.163-.061-.249-.061s-.17.02-.249.061l-1.001.526.191-1.114c.03-.173-.028-.349-.153-.472l-.81-.789 1.119-.163c.174-.025.324-.134.402-.292l.5-1.013.5 1.013c.078.157.228.267.402.292l1.119.163-.809.789zM26.133 20.522h-1.067v1.067h1.067v-1.067zM26.133 22.656h-1.067v1.067h1.067v-1.067zM27.2 21.589h-1.067v1.067H27.2v-1.067zM25.067 21.589H24v1.067h1.067v-1.067zM22.4 26.389h-1.067v1.067H22.4v-1.067zM22.4 28.522h-1.067v1.067H22.4v-1.067zM23.467 27.456H22.4v1.067h1.067v-1.067zM21.333 27.456h-1.067v1.067h1.067v-1.067zM16 24.256h-1.067v1.067H16v-1.067zM16 26.389h-1.067v1.067H16v-1.067zM17.067 25.322H16v1.067h1.067v-1.067zM14.933 25.322h-1.067v1.067h1.067v-1.067zM5.866 6.122H4.799v1.067h1.067V6.122zM5.866 8.255H4.799v1.067h1.067V8.255z"/>
      <path fill="var(--color2, #2196f3)" d="M6.933 7.189H5.866v1.067h1.067V7.189zM4.8 7.189H3.733v1.067H4.8V7.189z"/>
      <path fill="var(--color1, #212121)" d="M24.715 14.159c-.287-.388-.709-.637-1.188-.705-.481-.068-.956.058-1.34.352l-1.252.96-1.898 1.417-1.358-.541c2.421-1.086 4.114-3.508 4.114-6.32 0-3.823-3.123-6.933-6.961-6.933s-6.961 3.11-6.961 6.933c0 1.386.414 2.674 1.12 3.758l-2.764-.024h-.005c-.009 0-.015.004-.023.005-.053.002-.105.013-.155.031-.013.005-.026.008-.038.013-.006.003-.013.003-.019.006l-3.233 1.596c-.001 0-.001 0-.001.001l-1.893.911c-.021.009-.042.021-.063.035-.755.502-1.012 1.489-.598 2.295.22.429.595.745 1.056.889.178.055.359.083.539.083.29 0 .577-.071.839-.211l1.388-.738 2.264-1.169 1.357-.008L2.2 22.211c-.001.001-.001.001-.002.001L.859 23.545c-.316.315-.49.732-.49 1.178s.174.863.49 1.179c.325.323.752.485 1.179.485s.854-.162 1.18-.485l1.314-1.309 1.741-1.3.901.897-1.762 1.754c0 .001-.001.001-.002.001l-1.339 1.333c-.316.315-.49.732-.49 1.178s.174.863.49 1.179c.325.323.753.485 1.18.485s.855-.162 1.18-.485l3.482-3.467c.001-.001.001-.001.001-.002l1.01-1-.004-.004c.006-.006.015-.009.022-.015l5.166-5.658 3.471.494c.025.004.05.005.075.005.065 0 .127-.015.187-.038.018-.006.033-.015.05-.023.019-.01.039-.015.058-.027l3.213-2.133c.012-.008.018-.021.029-.029.013-.01.029-.014.041-.026l1.271-1.191c.662-.62.753-1.635.212-2.362zM2.13 17.77c-.173.093-.37.111-.558.052-.187-.058-.338-.186-.427-.358-.161-.314-.068-.696.214-.902l1.314-.632.449 1.312-.992.527zm3.498-1.828l-1.548.8-.439-1.283 2.027-1.001-.04 1.484zm15.099-6.62c0 .918-.219 1.785-.599 2.559l-4.181-1.899c-.044-.573-.341-1.075-.788-1.388l1.464-4.86c2.378.756 4.105 2.974 4.105 5.588zm-11.789 0c0-3.235 2.644-5.867 5.894-5.867.253 0 .5.021.745.052l-1.432 4.754c-.019-.001-.037-.006-.057-.006-1.033 0-1.873.837-1.873 1.867s.84 1.867 1.873 1.867c.694 0 1.294-.383 1.618-.945l3.862 1.755c-1.075 1.446-2.795 2.39-4.737 2.39-3.25 0-5.894-2.632-5.894-5.867zm5.956.8c0 .441-.362.8-.806.8s-.806-.359-.806-.8c0-.441.362-.8.806-.8s.806.359.806.8zM2.465 25.146c-.236.234-.619.234-.854.001-.114-.114-.176-.263-.176-.423s.062-.309.176-.421l.962-.958.851.848-.959.955zm3.214 3.734c-.236.234-.619.235-.855.001-.114-.114-.176-.263-.176-.423s.062-.309.176-.421l.963-.959.852.848-.96.955zm3.481-3.469c-.001 0-.001 0-.002.001l-1.765 1.76-.852-.848 1.763-1.755s.001-.001.002-.001c.04-.04.065-.088.09-.135.007-.014.02-.026.026-.04.017-.041.019-.085.026-.129.003-.025.014-.047.014-.073 0-.036-.013-.07-.02-.106-.006-.032-.006-.065-.019-.095-.02-.05-.055-.094-.091-.138-.01-.012-.014-.027-.025-.038h-.001c-.001 0-.001-.002-.001-.002l-1.607-1.6c-.017-.017-.039-.024-.058-.038-.028-.022-.055-.042-.087-.058-.03-.015-.061-.024-.093-.033-.034-.01-.067-.017-.103-.02-.033-.002-.063.001-.095.005-.036.004-.069.009-.104.02-.034.011-.063.027-.094.045-.02.011-.042.015-.061.029L4.23 23.486l-.901-.897 2.399-2.386 4.361 4.289-.928.919zm6.819-7.017c-.015-.002-.03.004-.045.003-.039-.002-.076.001-.115.007-.03.005-.059.011-.088.021-.034.012-.065.028-.097.047-.03.018-.057.037-.083.061-.013.011-.028.017-.04.029l-4.698 5.146-4.328-4.257 2.833-2.818c.209-.208.21-.546.002-.755-.105-.105-.243-.157-.381-.156v-.001l-2.219.013.028-1.607 3.104.027c1.265 1.294 3.029 2.101 4.981 2.101.437 0 .864-.045 1.279-.123.04.032.079.065.13.085l2.41.96.152.758.178.885-3.003-.427zm4.041.178l-.313-1.558 1.446-1.08.947 1.257-2.08 1.381zm3.754-2.831l-.838.785-.931-1.236.831-.637c.155-.119.351-.168.543-.143.193.027.364.128.48.284.217.292.18.699-.085.947z"/>
      <path fill="var(--color1, #212121)" d="M13.602 18.544l-2.143-2.133c-.207-.207-.545-.207-.753 0l-2.142 2.133c-.1.101-.157.236-.157.378s.056.278.157.378l2.142 2.133c.104.103.241.155.377.155s.273-.052.376-.155l2.143-2.133c.1-.1.157-.236.157-.378s-.057-.278-.157-.378zm-2.519 1.759l-1.387-1.381 1.387-1.381 1.387 1.381-1.387 1.381zM17.164 5.071l-.258 1.036c.071.018 1.738.452 1.738 2.149h1.067c0-2.017-1.666-2.965-2.547-3.185zM19.711 9.322h-1.067v1.067h1.067V9.322z"/>
    </symbol>
    <symbol id="icon-clientfifth" viewBox="0 0 59 47">
      <path d="M4.48764 39.2777C4.71752 39.5634 4.83998 39.9212 4.83356 40.2884C4.84529 40.5279 4.8032 40.767 4.71042 40.988C4.61763 41.209 4.47652 41.4062 4.29754 41.565C3.85095 41.9036 3.29769 42.0692 2.73933 42.0312H0V35.6262H2.68323C3.21289 35.5909 3.73833 35.7413 4.16977 36.0518C4.34305 36.1974 4.48026 36.3814 4.57058 36.5894C4.6609 36.7974 4.70185 37.0236 4.69021 37.2502C4.70595 37.6035 4.59543 37.9508 4.37857 38.2295C4.17037 38.484 3.88265 38.6604 3.56206 38.7301C3.92548 38.7967 4.25352 38.9908 4.48764 39.2777ZM1.27461 38.3109H2.42146C2.6821 38.3302 2.94097 38.2547 3.1507 38.0981C3.23681 38.0197 3.3038 37.9226 3.34649 37.814C3.38918 37.7055 3.40643 37.5886 3.39689 37.4723C3.40499 37.3564 3.38738 37.2402 3.34535 37.132C3.30332 37.0238 3.2379 36.9263 3.15381 36.8465C2.93781 36.6855 2.6709 36.6088 2.40276 36.6306H1.27461V38.3109ZM3.26289 40.7671C3.35493 40.6869 3.42729 40.5864 3.47432 40.4735C3.52134 40.3607 3.54178 40.2384 3.53402 40.1163C3.54104 39.9927 3.51967 39.8692 3.47158 39.7553C3.42349 39.6414 3.34995 39.54 3.25666 39.4592C3.03228 39.2922 2.75632 39.2102 2.47755 39.2277H1.27461V40.9892H2.49313C2.7674 41.0051 3.03889 40.9268 3.26289 40.7671Z"   />
      <path d="M9.97245 42.0312L8.47968 39.5281H7.91873V42.0312H6.63477V35.6263H9.06557C9.67829 35.5833 10.284 35.7782 10.7578 36.1707C11.0976 36.5183 11.3025 36.9764 11.3357 37.4623C11.3688 37.9482 11.228 38.4301 10.9385 38.8209C10.6386 39.1659 10.229 39.3959 9.77923 39.4717L11.3686 42.0312H9.97245ZM7.91873 38.6551H8.96896C9.6982 38.6551 10.0628 38.3318 10.0628 37.6851C10.0703 37.5531 10.0503 37.4209 10.0041 37.297C9.958 37.1731 9.88672 37.0602 9.79481 36.9655C9.56436 36.773 9.26757 36.6797 8.96896 36.7058H7.90626L7.91873 38.6551Z"   />
      <path d="M16.9905 40.7421H14.432L13.9801 42.0312H12.6338L14.9836 35.6982H16.4389L18.7794 42.0312H17.4331L16.9905 40.7421ZM16.6477 39.7721L15.7128 37.0687L14.7779 39.7721H16.6477Z"   />
      <path d="M25.7759 42.0312H24.5013L21.6436 37.6757V42.0312H20.3721V35.6262H21.6436L24.5013 40.0068V35.6262H25.7759V42.0312Z"   />
      <path d="M33.0497 40.4981C32.7862 40.9817 32.3846 41.375 31.8966 41.6276C31.3418 41.909 30.7261 42.0477 30.1047 42.0313H27.8359V35.6263H30.1047C30.725 35.61 31.3399 35.7453 31.8966 36.0206C32.3845 36.2674 32.7865 36.6569 33.0497 37.1376C33.3121 37.6585 33.4488 38.2341 33.4488 38.8178C33.4488 39.4016 33.3121 39.9772 33.0497 40.4981ZM31.5912 40.3448C31.955 39.9193 32.155 39.377 32.155 38.8163C32.155 38.2555 31.955 37.7133 31.5912 37.2878C31.1515 36.9024 30.5781 36.7067 29.9956 36.7433H29.1106V40.8892H29.9956C30.5781 40.9258 31.1515 40.7302 31.5912 40.3448Z"   />
      <path d="M17.7886 0C17.7886 0 34.2401 6.236 33.8911 15.2599V30.5229C33.8911 30.5229 17.452 24.2838 17.7948 15.2599L17.7886 0Z"   />
      <path d="M48.5474 26.9497C51.6544 24.8029 55.2483 23.4731 58.9998 23.0823V18.3044C54.6772 19.9771 51.0101 23.0101 48.5474 26.9497Z"   />
      <path d="M46.6809 28.389C49.2239 23.2477 53.6326 19.2804 59.0001 17.3031V3.53571C59.0001 3.53571 35.5708 12.4188 36.0663 25.2694V47C36.0663 47 37.1103 46.6026 38.7527 45.8579C38.7527 45.1633 38.7527 44.4624 38.8275 43.7584C39.3124 37.7925 42.1372 32.2642 46.6809 28.389Z"   />
      <path d="M44.4528 36.4616C44.5758 34.9546 44.8504 33.4638 45.2724 32.0123C42.4432 35.3589 40.7299 39.5116 40.3734 43.8866C40.3391 44.2997 40.3204 44.7127 40.311 45.1382C41.6417 44.4968 43.1906 43.6958 44.8174 42.754C44.4022 40.6841 44.2795 38.5659 44.4528 36.4616Z"   />
      <path d="M45.3846 36.5399C45.2286 38.4437 45.3261 40.3598 45.6744 42.2377C52.0755 38.3922 59.2682 32.4504 58.9908 25.2694V24.6436C54.4175 25.1574 50.1387 27.1647 46.8119 30.3571C46.033 32.3354 45.5519 34.4192 45.3846 36.5399Z"   />
    </symbol>
    <symbol id="icon-clientfirst" viewBox="0 0 45 50">
     <path d="M6 0L13.3076 6.91796H33.6924V26.2158L41 33.1338V0H6Z" />
     <path d="M0 6.62646V38.8137H34V26.0195L13.5231 6.63443L0 6.62646ZM27.5231 34.1055H5.38008V12.4579H6.9453V32.6397H27.5231V34.1055Z"/>
     <path d="M9.79102 44.7837L10.6089 43.0991H11.2925L10.1011 45.3452V46.6538H9.48096V45.3452L8.28711 43.0991H8.97314L9.79102 44.7837ZM13.3018 45.8262H11.9248L11.6367 46.6538H10.9946L12.3374 43.0991H12.8916L14.2368 46.6538H13.5923L13.3018 45.8262ZM12.0981 45.3281H13.1284L12.6133 43.8535L12.0981 45.3281ZM15.7358 45.6943C15.7358 45.5299 15.7806 45.3794 15.8701 45.2427C15.9596 45.1043 16.1362 44.9408 16.3999 44.752C16.2616 44.5778 16.1647 44.4297 16.1094 44.3076C16.0557 44.1855 16.0288 44.0675 16.0288 43.9536C16.0288 43.6753 16.1134 43.4556 16.2827 43.2944C16.452 43.1317 16.6799 43.0503 16.9663 43.0503C17.2251 43.0503 17.4367 43.1268 17.6011 43.2798C17.7671 43.4312 17.8501 43.6191 17.8501 43.8438C17.8501 43.9919 17.8127 44.1286 17.7378 44.2539C17.6629 44.3776 17.54 44.5013 17.3691 44.625L17.1274 44.8008L17.8135 45.6113C17.9128 45.416 17.9624 45.1987 17.9624 44.9595H18.4775C18.4775 45.3973 18.375 45.7562 18.1699 46.0361L18.6924 46.6538H18.0039L17.8037 46.417C17.5498 46.6074 17.2471 46.7026 16.8955 46.7026C16.5439 46.7026 16.2624 46.6099 16.0508 46.4243C15.8408 46.2371 15.7358 45.9938 15.7358 45.6943ZM16.9126 46.229C17.1128 46.229 17.3 46.1623 17.4741 46.0288L16.6978 45.1133L16.6221 45.167C16.4268 45.3151 16.3291 45.4844 16.3291 45.6748C16.3291 45.8392 16.382 45.9727 16.4878 46.0752C16.5936 46.1777 16.7352 46.229 16.9126 46.229ZM16.5854 43.939C16.5854 44.0757 16.6693 44.2474 16.8369 44.4541L17.1079 44.2686L17.1836 44.2075C17.2845 44.118 17.335 44.0033 17.335 43.8633C17.335 43.7705 17.3 43.6916 17.23 43.6265C17.16 43.5597 17.0713 43.5264 16.9639 43.5264C16.8483 43.5264 16.7563 43.5654 16.688 43.6436C16.6196 43.7217 16.5854 43.8201 16.5854 43.939ZM23.043 45.4966C23.0072 45.8758 22.8672 46.172 22.623 46.3853C22.3789 46.5968 22.0542 46.7026 21.6489 46.7026C21.3657 46.7026 21.1159 46.6359 20.8994 46.5024C20.6846 46.3674 20.5186 46.1761 20.4014 45.9287C20.2842 45.6813 20.2231 45.394 20.2183 45.0669V44.7349C20.2183 44.3996 20.2777 44.1042 20.3965 43.8486C20.5153 43.5931 20.6854 43.3962 20.9067 43.2578C21.1297 43.1195 21.3869 43.0503 21.6782 43.0503C22.0705 43.0503 22.3862 43.1569 22.6255 43.3701C22.8647 43.5833 23.0039 43.8844 23.043 44.2734H22.4277C22.3984 44.0179 22.3236 43.834 22.2031 43.7217C22.0843 43.6077 21.9093 43.5508 21.6782 43.5508C21.4097 43.5508 21.203 43.6493 21.0581 43.8462C20.9149 44.0415 20.8416 44.3288 20.8384 44.708V45.0229C20.8384 45.4071 20.9067 45.7 21.0435 45.9019C21.1818 46.1037 21.3836 46.2046 21.6489 46.2046C21.8914 46.2046 22.0737 46.1501 22.1958 46.041C22.3179 45.932 22.3952 45.7505 22.4277 45.4966H23.043ZM26.4341 44.9692C26.4341 45.3175 26.3739 45.6235 26.2534 45.8872C26.133 46.1493 25.9604 46.3511 25.7358 46.4927C25.5129 46.6326 25.2557 46.7026 24.9644 46.7026C24.6763 46.7026 24.4191 46.6326 24.1929 46.4927C23.9683 46.3511 23.7941 46.1501 23.6704 45.8896C23.5483 45.6292 23.4865 45.3289 23.4849 44.9888V44.7886C23.4849 44.4419 23.5459 44.1359 23.668 43.8706C23.7917 43.6053 23.965 43.4027 24.188 43.2627C24.4126 43.1211 24.6698 43.0503 24.9595 43.0503C25.2492 43.0503 25.5055 43.1203 25.7285 43.2603C25.9531 43.3986 26.1265 43.5988 26.2485 43.8608C26.3706 44.1213 26.4325 44.4248 26.4341 44.7715V44.9692ZM25.8164 44.7837C25.8164 44.3898 25.7415 44.0879 25.5918 43.8779C25.4437 43.668 25.2329 43.563 24.9595 43.563C24.6925 43.563 24.4834 43.668 24.332 43.8779C24.1823 44.0863 24.1058 44.3817 24.1025 44.7642V44.9692C24.1025 45.3599 24.1782 45.6618 24.3296 45.875C24.4826 46.0882 24.6942 46.1948 24.9644 46.1948C25.2378 46.1948 25.4478 46.0907 25.5942 45.8823C25.7424 45.674 25.8164 45.3696 25.8164 44.9692V44.7837Z"/>
    </symbol>
    <symbol id="icon-clientfourth" viewBox="0 0 84 51">
      <path d="M16.4022 12.8306H16.3995C14.1372 12.8306 12.3032 14.6177 12.3032 16.8223V16.8249C12.3032 19.0295 14.1372 20.8167 16.3995 20.8167H16.4022C18.6645 20.8167 20.4985 19.0295 20.4985 16.8249V16.8223C20.4985 14.6177 18.6645 12.8306 16.4022 12.8306Z"/>
      <path d="M46.6368 11.5545C46.6304 8.49242 45.3795 5.55752 43.1579 3.39207C40.9363 1.22661 37.925 0.00695286 34.7828 0V0C31.6397 0.00556265 28.6269 1.22461 26.4041 3.39022C24.1814 5.55582 22.9298 8.49151 22.9233 11.5545V28.4402C22.9233 28.4402 46.6341 25.8667 46.6368 11.5571V11.5545Z"/>
      <path d="M4 33.9823C4.0057 36.1129 4.87656 38.1547 6.42228 39.6615C7.96799 41.1683 10.0629 42.0177 12.2492 42.0239V42.0239C14.4351 42.0177 16.5296 41.1687 18.0752 39.6625C19.6209 38.1562 20.492 36.1151 20.4985 33.9849V33.9849V22.2356C20.4985 22.2356 4 24.0276 4 33.9823ZM12.2492 36.0874C11.822 36.0874 11.4043 35.964 11.0491 35.7326C10.6938 35.5013 10.417 35.1726 10.2535 34.7879C10.09 34.4032 10.0472 33.98 10.1305 33.5716C10.2139 33.1632 10.4196 32.7881 10.7217 32.4937C11.0239 32.1993 11.4088 31.9988 11.8278 31.9176C12.2468 31.8364 12.6812 31.8781 13.0759 32.0374C13.4706 32.1967 13.808 32.4665 14.0454 32.8127C14.2827 33.1589 14.4094 33.5659 14.4094 33.9823C14.4105 34.2594 14.3554 34.534 14.2473 34.7903C14.1392 35.0466 13.9803 35.2796 13.7796 35.476C13.5789 35.6723 13.3404 35.828 13.0778 35.9343C12.8152 36.0406 12.5336 36.0953 12.2492 36.0953V36.0874Z"/>
      <path d="M29.0894 34.7812H27.4019V36.5244H26.5229V32.2588H29.3003V32.9707H27.4019V34.0723H29.0894V34.7812ZM33.314 34.4883C33.314 34.9082 33.2397 35.2764 33.0913 35.5928C32.9429 35.9092 32.73 36.1533 32.4526 36.3252C32.1772 36.4971 31.8608 36.583 31.5034 36.583C31.1499 36.583 30.8345 36.498 30.5571 36.3281C30.2798 36.1582 30.0649 35.916 29.9126 35.6016C29.7603 35.2852 29.6831 34.9219 29.6812 34.5117V34.3008C29.6812 33.8809 29.7563 33.5117 29.9067 33.1934C30.0591 32.873 30.2729 32.6279 30.5483 32.458C30.8257 32.2861 31.1421 32.2002 31.4976 32.2002C31.853 32.2002 32.1685 32.2861 32.4438 32.458C32.7212 32.6279 32.9351 32.873 33.0854 33.1934C33.2378 33.5117 33.314 33.8799 33.314 34.2979V34.4883ZM32.4233 34.2949C32.4233 33.8477 32.3433 33.5078 32.1831 33.2754C32.0229 33.043 31.7944 32.9268 31.4976 32.9268C31.2026 32.9268 30.9751 33.042 30.8149 33.2725C30.6548 33.501 30.5737 33.8369 30.5718 34.2803V34.4883C30.5718 34.9238 30.6519 35.2617 30.812 35.502C30.9722 35.7422 31.2026 35.8623 31.5034 35.8623C31.7983 35.8623 32.0249 35.7471 32.1831 35.5166C32.3413 35.2842 32.4214 34.9463 32.4233 34.5029V34.2949ZM36.1646 35.4053C36.1646 35.2393 36.106 35.1123 35.9888 35.0244C35.8716 34.9346 35.6606 34.8408 35.356 34.7432C35.0513 34.6436 34.8101 34.5459 34.6323 34.4502C34.1479 34.1885 33.9058 33.8359 33.9058 33.3926C33.9058 33.1621 33.9702 32.957 34.0991 32.7773C34.23 32.5957 34.4165 32.4541 34.6587 32.3525C34.9028 32.251 35.1763 32.2002 35.479 32.2002C35.7837 32.2002 36.0552 32.2559 36.2935 32.3672C36.5317 32.4766 36.7163 32.6318 36.8472 32.833C36.98 33.0342 37.0464 33.2627 37.0464 33.5186H36.1675C36.1675 33.3232 36.106 33.1719 35.9829 33.0645C35.8599 32.9551 35.687 32.9004 35.4644 32.9004C35.2495 32.9004 35.0825 32.9463 34.9634 33.0381C34.8442 33.1279 34.7847 33.2471 34.7847 33.3955C34.7847 33.5342 34.854 33.6504 34.9927 33.7441C35.1333 33.8379 35.3394 33.9258 35.6108 34.0078C36.1108 34.1582 36.4751 34.3447 36.7036 34.5674C36.9321 34.79 37.0464 35.0674 37.0464 35.3994C37.0464 35.7686 36.9067 36.0586 36.6274 36.2695C36.3481 36.4785 35.9722 36.583 35.4995 36.583C35.1714 36.583 34.8726 36.5234 34.603 36.4043C34.3335 36.2832 34.1274 36.1182 33.9849 35.9092C33.8442 35.7002 33.7739 35.458 33.7739 35.1826H34.6558C34.6558 35.6533 34.937 35.8887 35.4995 35.8887C35.7085 35.8887 35.8716 35.8467 35.9888 35.7627C36.106 35.6768 36.1646 35.5576 36.1646 35.4053ZM40.855 32.9707H39.5483V36.5244H38.6694V32.9707H37.3804V32.2588H40.855V32.9707ZM43.9253 34.6758H42.2378V35.8184H44.2183V36.5244H41.3589V32.2588H44.2124V32.9707H42.2378V33.9873H43.9253V34.6758ZM46.313 34.9629H45.6128V36.5244H44.7339V32.2588H46.3188C46.8228 32.2588 47.2114 32.3711 47.4849 32.5957C47.7583 32.8203 47.895 33.1377 47.895 33.5479C47.895 33.8389 47.8315 34.082 47.7046 34.2773C47.5796 34.4707 47.3892 34.625 47.1333 34.7402L48.0562 36.4834V36.5244H47.1128L46.313 34.9629ZM45.6128 34.251H46.3218C46.5425 34.251 46.7134 34.1953 46.8345 34.084C46.9556 33.9707 47.0161 33.8154 47.0161 33.6182C47.0161 33.417 46.9585 33.2588 46.8433 33.1436C46.73 33.0283 46.5552 32.9707 46.3188 32.9707H45.6128V34.251ZM50.939 35.0215V36.5244H50.0601V32.2588H51.7241C52.0444 32.2588 52.3257 32.3174 52.5679 32.4346C52.812 32.5518 52.9995 32.7188 53.1304 32.9355C53.2612 33.1504 53.3267 33.3955 53.3267 33.6709C53.3267 34.0889 53.1831 34.4189 52.896 34.6611C52.6108 34.9014 52.2153 35.0215 51.7095 35.0215H50.939ZM50.939 34.3096H51.7241C51.9565 34.3096 52.1333 34.2549 52.2544 34.1455C52.3774 34.0361 52.439 33.8799 52.439 33.6768C52.439 33.4678 52.3774 33.2988 52.2544 33.1699C52.1313 33.041 51.9614 32.9746 51.7446 32.9707H50.939V34.3096ZM56.4995 34.6758H54.812V35.8184H56.7925V36.5244H53.9331V32.2588H56.7866V32.9707H54.812V33.9873H56.4995V34.6758ZM60.5776 32.9707H59.271V36.5244H58.3921V32.9707H57.103V32.2588H60.5776V32.9707ZM63.6479 34.6758H61.9604V35.8184H63.9409V36.5244H61.0815V32.2588H63.9351V32.9707H61.9604V33.9873H63.6479V34.6758ZM66.0356 34.9629H65.3354V36.5244H64.4565V32.2588H66.0415C66.5454 32.2588 66.9341 32.3711 67.2075 32.5957C67.481 32.8203 67.6177 33.1377 67.6177 33.5479C67.6177 33.8389 67.5542 34.082 67.4272 34.2773C67.3022 34.4707 67.1118 34.625 66.856 34.7402L67.7788 36.4834V36.5244H66.8354L66.0356 34.9629ZM65.3354 34.251H66.0444C66.2651 34.251 66.436 34.1953 66.5571 34.084C66.6782 33.9707 66.7388 33.8154 66.7388 33.6182C66.7388 33.417 66.6812 33.2588 66.5659 33.1436C66.4526 33.0283 66.2778 32.9707 66.0415 32.9707H65.3354V34.251ZM70.5005 35.4053C70.5005 35.2393 70.4419 35.1123 70.3247 35.0244C70.2075 34.9346 69.9966 34.8408 69.6919 34.7432C69.3872 34.6436 69.146 34.5459 68.9683 34.4502C68.4839 34.1885 68.2417 33.8359 68.2417 33.3926C68.2417 33.1621 68.3062 32.957 68.4351 32.7773C68.5659 32.5957 68.7524 32.4541 68.9946 32.3525C69.2388 32.251 69.5122 32.2002 69.8149 32.2002C70.1196 32.2002 70.3911 32.2559 70.6294 32.3672C70.8677 32.4766 71.0522 32.6318 71.1831 32.833C71.3159 33.0342 71.3823 33.2627 71.3823 33.5186H70.5034C70.5034 33.3232 70.4419 33.1719 70.3188 33.0645C70.1958 32.9551 70.0229 32.9004 69.8003 32.9004C69.5854 32.9004 69.4185 32.9463 69.2993 33.0381C69.1802 33.1279 69.1206 33.2471 69.1206 33.3955C69.1206 33.5342 69.1899 33.6504 69.3286 33.7441C69.4692 33.8379 69.6753 33.9258 69.9468 34.0078C70.4468 34.1582 70.811 34.3447 71.0396 34.5674C71.2681 34.79 71.3823 35.0674 71.3823 35.3994C71.3823 35.7686 71.2427 36.0586 70.9634 36.2695C70.6841 36.4785 70.3081 36.583 69.8354 36.583C69.5073 36.583 69.2085 36.5234 68.939 36.4043C68.6694 36.2832 68.4634 36.1182 68.3208 35.9092C68.1802 35.7002 68.1099 35.458 68.1099 35.1826H68.9917C68.9917 35.6533 69.2729 35.8887 69.8354 35.8887C70.0444 35.8887 70.2075 35.8467 70.3247 35.7627C70.4419 35.6768 70.5005 35.5576 70.5005 35.4053Z"/>
    </symbol>
    <symbol id="icon-clientsecond" viewBox="0 0 40 52">
      <path d="M16.9769 2.93452H17.1135C17.3665 2.93452 17.6397 2.95995 17.9104 2.98284C19.103 3.06695 20.2873 3.24551 21.452 3.51685V0.653528C20.2527 0.352628 19.0296 0.157776 17.7965 0.0712015C17.3285 0.0356008 16.8302 0.0127146 16.3192 0H15.8917C13.4168 0.00930695 10.9526 0.327052 8.55545 0.945963C5.82521 1.62687 3.20457 2.69275 0.771484 4.11189V32.5086C3.11421 31.2357 5.60704 30.2643 8.19117 29.6173C10.2315 29.0967 12.3174 28.7765 14.4193 28.6612H14.5028C14.8545 28.6434 15.2061 28.6332 15.5678 28.6306V25.7216C12.8366 25.7567 10.1192 26.1178 7.47273 26.7972C6.49372 27.0515 5.54761 27.3261 4.65967 27.6313L3.64778 27.9746V5.83344L4.08036 5.62492C7.38159 4.05951 10.9521 3.14863 14.5964 2.94215C14.6267 2.93994 14.6572 2.93994 14.6875 2.94215C15.0897 2.92181 15.4945 2.91163 15.8917 2.91163H16.3268H16.347C16.557 2.91672 16.7669 2.92181 16.9769 2.93452Z"   />
       <path d="M24.111 5.93259C23.4457 5.93259 22.788 5.9097 22.153 5.86138C21.3941 5.80544 20.6149 5.7139 19.8763 5.58929C19.426 5.51301 18.9833 5.42146 18.5532 5.32229V33.3935C20.3739 33.8443 22.2435 34.0647 24.1186 34.0496C26.5933 34.0395 29.0573 33.7227 31.4548 33.1061C34.1856 32.4243 36.8069 31.3585 39.2413 29.9402V2.04956C36.8989 3.32178 34.4071 4.29396 31.8242 4.94339C29.3034 5.59083 26.7128 5.92307 24.111 5.93259ZM35.3354 6.41828L36.3473 6.07753V28.2263L35.9147 28.4348C34.2554 29.2243 32.5226 29.8469 30.7414 30.2937C28.5784 30.8533 26.3547 31.1412 24.1211 31.1506C23.4533 31.1506 22.7905 31.1227 22.148 31.0667L21.4548 31.0057V28.3178V8.22883L22.2618 8.28224C22.8487 8.32038 23.4558 8.33818 24.1161 8.33818C26.9517 8.3281 29.7751 7.96596 32.5224 7.25998C33.4659 7.01078 34.4045 6.73106 35.3354 6.41828Z"   />
       <path d="M2.73726 42.2124C2.59178 42.0615 2.41641 41.943 2.22248 41.8646C2.02856 41.7862 1.82042 41.7496 1.61153 41.7572C1.38892 41.7542 1.16793 41.7957 0.961389 41.8793C0.772023 41.9547 0.599889 42.068 0.455444 42.2124C0.312573 42.3572 0.201414 42.5304 0.12911 42.721C0.0498013 42.9207 0.0102645 43.1341 0.0127426 43.3491V47.1431C0.0036949 47.4104 0.0547102 47.6764 0.161996 47.9212C0.251555 48.1156 0.380847 48.2889 0.541455 48.4298C0.693075 48.5575 0.8711 48.6495 1.06258 48.6994C1.24706 48.7512 1.43768 48.7777 1.62924 48.7782C1.84053 48.7803 2.04965 48.7351 2.24143 48.646C2.43107 48.563 2.60289 48.4438 2.74737 48.295C2.88826 48.1476 3.00064 47.9752 3.07877 47.7864C3.15985 47.5951 3.20117 47.3892 3.2002 47.1812V46.7566H2.20854V47.0948C2.21149 47.2103 2.19172 47.3252 2.15036 47.433C2.11807 47.5137 2.06889 47.5866 2.00617 47.6466C1.94474 47.6962 1.87428 47.7334 1.79873 47.7559C1.73176 47.7782 1.66182 47.7902 1.59129 47.7915C1.50275 47.8018 1.41308 47.7885 1.33134 47.7527C1.24961 47.717 1.17871 47.6602 1.12582 47.5881C1.03234 47.4356 0.986517 47.2585 0.994276 47.0795V43.5423C0.988124 43.3462 1.02981 43.1515 1.1157 42.9753C1.16718 42.8952 1.24002 42.8313 1.3259 42.7908C1.41178 42.7503 1.50725 42.7349 1.60141 42.7464C1.68689 42.7434 1.77182 42.7612 1.84893 42.7984C1.92603 42.8356 1.99301 42.8911 2.04411 42.96C2.15508 43.1057 2.2131 43.2852 2.20854 43.4686V43.7966H3.19008V43.4101C3.19207 43.1831 3.15085 42.9578 3.06865 42.7464C2.99539 42.5476 2.88264 42.3659 2.73726 42.2124Z"   />
       <path d="M8.62867 42.1692C8.31247 41.9022 7.91337 41.7547 7.50042 41.7521C7.29843 41.753 7.09813 41.7891 6.90846 41.8589C6.71589 41.928 6.53816 42.0333 6.38481 42.1692C6.22052 42.3169 6.08943 42.498 6.00029 42.7006C5.90039 42.9324 5.85121 43.183 5.8561 43.4355V47.0744C5.84926 47.3304 5.89848 47.5848 6.00029 47.8195C6.09003 48.0152 6.22127 48.1888 6.38481 48.3281C6.53641 48.4689 6.71444 48.5778 6.90846 48.6485C7.09813 48.7183 7.29843 48.7545 7.50042 48.7553C7.70244 48.7549 7.90282 48.7188 8.09237 48.6485C8.28971 48.5768 8.4717 48.4681 8.62867 48.3281C8.78685 48.1862 8.9143 48.0131 9.00307 47.8195C9.10488 47.5848 9.15411 47.3304 9.14727 47.0744V43.4355C9.15215 43.183 9.10297 42.9324 9.00307 42.7006C8.91481 42.5001 8.78751 42.3194 8.62867 42.1692ZM8.16573 47.0744C8.17409 47.1714 8.1607 47.2691 8.12655 47.3602C8.09241 47.4513 8.03837 47.5335 7.96842 47.6008C7.83743 47.7107 7.67226 47.7708 7.50168 47.7708C7.3311 47.7708 7.16593 47.7107 7.03495 47.6008C6.965 47.5335 6.91096 47.4513 6.87681 47.3602C6.84266 47.2691 6.82927 47.1714 6.83763 47.0744V43.4355C6.82927 43.3386 6.84266 43.2409 6.87681 43.1498C6.91096 43.0587 6.965 42.9765 7.03495 42.9092C7.16593 42.7993 7.3311 42.7391 7.50168 42.7391C7.67226 42.7391 7.83743 42.7993 7.96842 42.9092C8.03837 42.9765 8.09241 43.0587 8.12655 43.1498C8.1607 43.2409 8.17409 43.3386 8.16573 43.4355V47.0744Z"   />
       <path d="M16.3675 48.6994V41.8106H15.4138L14.1616 45.4571H14.1439L12.8816 41.8106H11.938V48.6994H12.9221V44.5086H12.9398L13.9036 47.4711H14.3944L15.3658 44.5086H15.3835V48.6994H16.3675Z"   />
       <path d="M21.9582 42.2937C21.8067 42.1237 21.6154 41.9943 21.4016 41.9173C21.1713 41.8424 20.9303 41.8063 20.6883 41.8105H19.2261V48.6993H20.2076V46.0089H20.7136C21.0198 46.0228 21.3245 45.958 21.599 45.8207C21.8221 45.6968 22.0082 45.515 22.1378 45.2943C22.2513 45.1111 22.3278 44.9071 22.3629 44.6942C22.4016 44.435 22.4193 44.173 22.4161 43.911C22.4256 43.5802 22.3933 43.2495 22.3199 42.9269C22.2545 42.6885 22.13 42.4706 21.9582 42.2937ZM21.4522 44.3941C21.448 44.5188 21.4169 44.6412 21.3612 44.7527C21.3051 44.8586 21.2163 44.9434 21.1082 44.9942C20.9628 45.0593 20.8042 45.0889 20.6453 45.0807H20.1975V42.7387H20.7034C20.8558 42.7312 21.0077 42.7609 21.1461 42.8251C21.2476 42.8834 21.3282 42.9724 21.3763 43.0794C21.43 43.2004 21.4592 43.331 21.4624 43.4634C21.4624 43.6084 21.4624 43.7609 21.4624 43.9211C21.4624 44.0813 21.4725 44.2466 21.4624 44.3941H21.4522Z"   />
       <path d="M26.6074 41.8106H25.803L24.2852 48.6994H25.2667L25.5551 47.2194H26.8933L27.1817 48.6994H28.1632L26.6074 41.8106ZM25.7018 46.281L26.185 43.7839H26.2027L26.6833 46.281H25.7018Z"   />
       <path d="M32.9496 45.9606H32.9319L31.4494 41.8106H30.5059V48.6994H31.4874V44.557H31.5076L33.0078 48.6994H33.9311V41.8106H32.9496V45.9606Z"   />
       <path d="M38.9476 41.8106L38.1583 44.5493H38.1381L37.3488 41.8106H36.3091L37.6574 45.7877V48.6994H38.639V45.7877L39.9873 41.8106H38.9476Z"   />
       <path d="M0 50.6445H0.473058V51.9719H0.794333V50.6445H1.26486V50.3724H0V50.6445Z"   />
       <path d="M3.97672 50.3724L3.35693 51.9719H3.69845L3.82999 51.6083H4.46748L4.60409 51.9719H4.95319L4.31823 50.3724H3.97672ZM3.92612 51.3387L4.14368 50.7462L4.36123 51.3387H3.92612Z"   />
       <path d="M7.90793 51.3821H8.27727V51.5881C8.16941 51.6746 8.03576 51.722 7.89781 51.7229C7.8333 51.7265 7.76886 51.7145 7.70988 51.688C7.65091 51.6614 7.59911 51.6211 7.55883 51.5703C7.47402 51.4485 7.43217 51.3017 7.43993 51.1533C7.43993 50.7973 7.59424 50.6193 7.90034 50.6193C7.98091 50.6112 8.06168 50.6325 8.12804 50.6791C8.19439 50.7257 8.24194 50.7947 8.26209 50.8735L8.57831 50.8125C8.51001 50.4997 8.28486 50.3421 7.90034 50.3421C7.69468 50.3366 7.4947 50.4103 7.34127 50.5481C7.26069 50.6276 7.19834 50.7239 7.15858 50.8302C7.11882 50.9365 7.10261 51.0502 7.11107 51.1634C7.10175 51.3823 7.17493 51.5966 7.31598 51.7636C7.39434 51.8444 7.4892 51.9071 7.59401 51.9475C7.69883 51.9879 7.8111 52.0049 7.92311 51.9975C8.17338 52.0045 8.41652 51.9133 8.60108 51.7432V51.1126H7.90793V51.3821Z"   />
       <path d="M11.9224 50.3724H11.5986V51.9719H12.7193V51.6998H11.9224V50.3724Z"   />
       <path d="M15.3175 50.3724H14.9937V51.9719H15.3175V50.3724Z"   />
       <path d="M18.6364 51.4405L17.9812 50.3724H17.6675V51.9719H17.9685V50.9268L18.6111 51.9719H18.9323V50.3724H18.6364V51.4405Z"   />
       <path d="M21.6368 51.2675H22.4337V50.9954H21.6368V50.6445H22.4944V50.3724H21.313V51.9719H22.5273V51.6998H21.6368V51.2675Z"   />
       <path d="M28.9121 51.0031H28.2822V50.3724H27.9609V51.9719H28.2822V51.2726H28.9121V51.9719H29.2334V50.3724H28.9121V51.0031Z"   />
       <path d="M31.9302 51.2675H32.7296V50.9954H31.9302V50.6445H32.7903V50.3724H31.6089V51.9719H32.8206V51.6998H31.9302V51.2675Z"   />
       <path d="M36.0235 51.2677C36.3018 51.2244 36.4434 51.0769 36.4434 50.8227C36.4515 50.7546 36.4412 50.6857 36.4136 50.623C36.386 50.5604 36.3421 50.5064 36.2866 50.4667C36.1417 50.3939 35.9801 50.3614 35.8186 50.3726H35.1406V51.9721H35.4619V51.3033H35.5251C35.5936 51.299 35.6621 51.3112 35.725 51.3389C35.772 51.3678 35.8111 51.408 35.8388 51.4558L36.1879 51.9644H36.5724L36.3777 51.6516C36.2916 51.4972 36.1702 51.3656 36.0235 51.2677ZM35.6997 51.0464H35.4619V50.6447H35.7149C35.8251 50.6357 35.936 50.6487 36.0412 50.6828C36.0646 50.7035 36.0831 50.7291 36.0952 50.7579C36.1074 50.7868 36.113 50.818 36.1115 50.8492C36.11 50.8805 36.1016 50.911 36.0868 50.9386C36.072 50.9661 36.0512 50.9899 36.026 51.0083C35.9204 51.0407 35.8099 51.0536 35.6997 51.0464Z"   />
      <path d="M39.1094 51.2675H39.9063V50.9954H39.1094V50.6445H39.9696V50.3724H38.7856V51.9719H39.9999V51.6998H39.1094V51.2675Z"   />
    </symbol>
    <symbol id="icon-clientsixth" viewBox="0 0 89 46">
      <path d="M44.7404 21.3533C44.3224 20.7432 44.1225 20.022 44.1699 19.2962V16.3135C44.1699 15.3992 44.359 14.7044 44.7372 14.2291C45.1154 13.7537 45.7649 13.517 46.6858 13.5191C47.5512 13.5191 48.1654 13.7213 48.5287 14.1259C48.9249 14.6421 49.1176 15.2733 49.0735 15.91V16.6109H47.5255V15.9009C47.531 15.6685 47.516 15.4361 47.4807 15.2061C47.4584 15.0488 47.3804 14.9033 47.2595 14.7934C47.1006 14.675 46.9003 14.6175 46.6987 14.6326C46.4866 14.6176 46.2762 14.6782 46.1089 14.8025C45.9741 14.9243 45.8842 15.0838 45.8525 15.2576C45.8081 15.5011 45.7878 15.7479 45.7916 15.995V19.6147C45.7672 19.964 45.8355 20.3134 45.9904 20.6312C46.0673 20.7387 46.1743 20.824 46.2993 20.8775C46.4243 20.9311 46.5625 20.9508 46.6987 20.9346C46.897 20.9501 47.0937 20.8912 47.2467 20.7708C47.3728 20.6523 47.454 20.4976 47.4775 20.3308C47.5136 20.0907 47.5297 19.8482 47.5255 19.6056V18.8714H49.0735V19.5419C49.117 20.2056 48.9289 20.8644 48.5383 21.4171C48.1825 21.86 47.5768 22.0815 46.6858 22.0815C45.7949 22.0815 45.1218 21.8449 44.7404 21.3533Z"  />
      <path d="M51.1856 21.3837C50.7946 20.9194 50.5991 20.2428 50.5991 19.3477V16.2104C50.5991 15.3244 50.7946 14.6538 51.1856 14.1987C51.5766 13.7436 52.2304 13.517 53.147 13.5191C54.0572 13.5191 54.7078 13.7456 55.0988 14.1987C55.4898 14.6538 55.6885 15.3244 55.6885 16.2104V19.3477C55.6885 20.2337 55.4898 20.9134 55.0924 21.3806C54.695 21.8479 54.0476 22.0815 53.147 22.0815C52.2464 22.0815 51.5798 21.8449 51.1856 21.3837ZM53.8681 20.6312C54.0081 20.3404 54.0719 20.0219 54.054 19.7027V15.8615C54.072 15.5485 54.0093 15.2361 53.8713 14.9512C53.7928 14.8414 53.6832 14.7547 53.5551 14.7011C53.4271 14.6474 53.2856 14.629 53.147 14.6478C53.0079 14.6294 52.8662 14.6481 52.7377 14.7017C52.6093 14.7553 52.4991 14.8417 52.4195 14.9512C52.2786 15.2353 52.2147 15.5481 52.2336 15.8615V19.7209C52.2141 20.0402 52.278 20.3591 52.4195 20.6494C52.5097 20.7473 52.6211 20.8257 52.746 20.8795C52.8709 20.9332 53.0066 20.961 53.1438 20.961C53.281 20.961 53.4167 20.9332 53.5416 20.8795C53.6665 20.8257 53.7779 20.7473 53.8681 20.6494V20.6312Z"  />
      <path d="M57.5505 13.6106H59.2171L60.4702 19.3992L61.7522 13.6106H63.3739L63.5374 21.9658H62.3387L62.2105 16.159L60.9734 21.9658H60.0119L58.7299 16.1378L58.6114 21.9658H57.3999L57.5505 13.6106Z"  />
      <path d="M65.4061 13.6106H68.0021C69.4977 13.6106 70.2455 14.4014 70.2455 15.9831C70.2455 17.498 69.4581 18.2544 67.8835 18.2524H66.9989V21.9658H65.3965L65.4061 13.6106ZM67.6239 17.1814C67.7822 17.2005 67.943 17.1867 68.0952 17.1411C68.2474 17.0956 68.3873 17.0193 68.5052 16.9175C68.689 16.6353 68.77 16.3039 68.736 15.974C68.7444 15.7191 68.7185 15.4642 68.6591 15.2155C68.6362 15.1324 68.5961 15.0545 68.5411 14.9863C68.486 14.918 68.4172 14.8608 68.3386 14.8181C68.1161 14.7171 67.8702 14.6711 67.6239 14.6846H67.0021V17.1814H67.6239Z"  />
      <path d="M72.5559 13.6106H74.277L76.0428 21.9658H74.5494L74.2 20.0393H72.6649L72.3059 21.9658H70.79L72.5559 13.6106ZM74.027 19.0715L73.4277 15.5644L72.8283 19.0715H74.027Z"  />
      <path d="M77.469 13.6106H78.5908L80.7381 18.3768V13.6106H82.0681V21.9658H81.0009L78.8407 16.9903V21.9658H77.4658L77.469 13.6106Z"  />
      <path d="M85.1836 18.7801L83.3984 13.6223H84.9015L85.9912 16.9354L87.0136 13.6223H88.4846L86.7219 18.7801V21.9658H85.1836V18.7801Z"  />
      <path d="M47.2146 25.6189V26.0558H45.907V29.4509H45.3589V26.0558H44.0449V25.6189H47.2146Z"  />
      <path d="M51.3141 29.4512H50.891C50.8481 29.4537 50.8057 29.4407 50.7724 29.4148C50.7404 29.3925 50.7159 29.362 50.7019 29.3268L50.3238 28.4166H48.5097L48.1316 29.3268C48.1208 29.3649 48.1011 29.4001 48.0739 29.43C48.0403 29.4554 47.9982 29.4683 47.9553 29.4664H47.5322L49.1347 25.6345H49.6924L51.3141 29.4512ZM48.6604 28.0283H50.1731L49.5321 26.4688C49.4848 26.3509 49.4452 26.2303 49.4135 26.1078C49.3911 26.1806 49.3719 26.2504 49.3526 26.3111L49.295 26.4719L48.6604 28.0283Z"  />
      <path d="M54.0766 29.0748C54.177 29.0798 54.2775 29.0798 54.3779 29.0748C54.4645 29.0664 54.5503 29.0512 54.6343 29.0293C54.7128 29.0111 54.7899 28.9878 54.865 28.9595C54.9356 28.9322 55.0061 28.8988 55.0798 28.8655V28.0037H54.4388C54.4229 28.0046 54.4071 28.0023 54.3922 27.9971C54.3773 27.9919 54.3637 27.9838 54.3523 27.9734C54.3417 27.9648 54.3334 27.954 54.3279 27.9419C54.3223 27.9299 54.3197 27.9167 54.3202 27.9036V27.6093H55.5637V29.0779C55.4622 29.1466 55.355 29.2075 55.2432 29.2599C55.129 29.3133 55.0099 29.357 54.8875 29.3904C54.7564 29.4269 54.6224 29.4533 54.4869 29.4693C54.3315 29.4856 54.1753 29.4937 54.0189 29.4936C53.7425 29.4958 53.4683 29.4473 53.2113 29.351C52.9714 29.2596 52.7534 29.1234 52.5703 28.9504C52.3919 28.7757 52.2514 28.5695 52.1569 28.3436C52.0559 28.0896 52.0059 27.8199 52.0095 27.5486C52.0061 27.2755 52.055 27.0041 52.1537 26.7475C52.2459 26.5204 52.3866 26.3138 52.5671 26.1406C52.75 25.9682 52.9681 25.833 53.2081 25.7431C53.4825 25.6454 53.7738 25.597 54.067 25.6005C54.2162 25.6003 54.3652 25.6115 54.5125 25.6339C54.6428 25.654 54.7706 25.6865 54.8939 25.731C55.006 25.7709 55.1134 25.8217 55.2144 25.8827C55.3126 25.9426 55.4058 26.0095 55.4932 26.083L55.3394 26.3197C55.3273 26.3413 55.3094 26.3594 55.2874 26.3722C55.2654 26.3851 55.2402 26.392 55.2144 26.3925C55.1789 26.3914 55.1445 26.3809 55.115 26.3621C55.067 26.3379 55.0157 26.3075 54.958 26.2711C54.8898 26.2307 54.818 26.1961 54.7433 26.1679C54.6477 26.1317 54.5491 26.1032 54.4484 26.083C54.3142 26.0596 54.1779 26.0484 54.0414 26.0496C53.8299 26.0474 53.62 26.0834 53.4228 26.1558C53.2445 26.2235 53.0838 26.3271 52.9517 26.4592C52.8189 26.597 52.7174 26.7592 52.6536 26.9356C52.5105 27.3507 52.5105 27.7981 52.6536 28.2131C52.7238 28.3933 52.833 28.5576 52.9741 28.6955C53.1056 28.827 53.2651 28.9304 53.4421 28.999C53.6458 29.0652 53.8619 29.091 54.0766 29.0748Z"  />
      <path d="M59.1851 29.014H60.9351V29.4509H58.6499V25.6189H59.198L59.1851 29.014Z"  />
      <path d="M62.7556 29.4509H62.2075V25.6189H62.7556V29.4509Z"  />
      <path d="M64.7939 25.6371C64.8265 25.6547 64.8548 25.6785 64.8772 25.7069L67.22 28.5955C67.2168 28.5501 67.2168 28.5045 67.22 28.459C67.22 28.4165 67.22 28.374 67.22 28.3346V25.6038H67.6975V29.4512H67.4219C67.3811 29.4543 67.3401 29.447 67.3033 29.43C67.27 29.4109 67.2407 29.3862 67.2168 29.3571L64.8772 26.4716C64.8772 26.5171 64.8772 26.5595 64.8772 26.602C64.8772 26.6445 64.8772 26.684 64.8772 26.7204V29.4512H64.4189V25.6189H64.7042C64.7351 25.619 64.7657 25.6252 64.7939 25.6371Z"  />
      <path d="M71.7323 25.6189V26.0406H69.7901V27.3059H71.3637V27.7124H69.7901V29.0202H71.7323V29.4419H69.2261V25.6189H71.7323Z"  />
      <path d="M14.3035 1.95391L38.6385 8.49527V31.4173L14.3035 24.879V1.95391ZM12.7427 0V25.9925L40.196 33.3743V7.38482L12.7427 0Z"  />
      <path d="M27.4565 45.4402L0 38.0522V12.0625L27.4565 19.4474V45.4402Z"  />
      <path d="M13.1978 1.65958L37.2155 8.11891L27.0014 17.7912L2.98057 11.3288L13.1978 1.65958ZM12.7427 0L0 12.0631L27.4565 19.4478L40.196 7.38469L12.7427 0Z"  />
      <path d="M29.0015 43.978L40.1962 33.3774L29.0015 30.3647V43.978Z"/>
     <path d="M16.086 15.408c-.15-.219-.222-.479-.205-.74v-1.072c0-.329.068-.579.204-.749s.369-.256.701-.255c.311 0 .532.073.663.218.142.186.212.413.196.641v.252h-.557v-.255c.002-.084-.003-.167-.016-.25-.008-.057-.036-.109-.08-.148-.057-.043-.129-.063-.202-.058-.076-.005-.152.016-.212.061-.048.044-.081.101-.092.164-.016.088-.023.176-.022.265v1.301c-.009.126.016.251.071.365.028.039.066.069.111.089s.095.026.144.021c.071.006.142-.016.197-.059.045-.043.075-.098.083-.158.013-.086.019-.174.017-.261v-.264h.557v.241c.016.239-.052.476-.192.674-.128.159-.346.239-.666.239s-.562-.085-.699-.262zM18.404 15.419c-.141-.167-.211-.41-.211-.732v-1.128c0-.319.07-.56.211-.723s.376-.245.705-.244c.327 0 .561.081.702.244s.212.405.212.723v1.128c0 .319-.071.563-.214.731s-.376.252-.699.252-.564-.085-.705-.251zm.964-.271c.05-.105.073-.219.067-.334v-1.381c.006-.113-.016-.225-.066-.327-.028-.039-.068-.071-.114-.09s-.097-.026-.147-.019c-.05-.007-.101 0-.147.019s-.086.05-.114.09c-.051.102-.074.215-.067.327v1.388c-.007.115.016.229.067.334.032.035.073.063.117.083s.094.029.143.029.098-.01.143-.029c.045-.019.085-.048.117-.083v-.007zM20.692 12.624h.599l.451 2.081.461-2.081h.583l.059 3.004h-.431l-.046-2.088-.445 2.088h-.346l-.461-2.095-.043 2.095h-.436l.054-3.004zM23.517 12.624h.933c.538 0 .807.284.807.853 0 .545-.283.817-.849.816h-.318v1.335h-.576l.003-3.004zm.797 1.284c.057.007.115.002.169-.014s.105-.044.147-.08c.066-.101.095-.221.083-.339.003-.092-.006-.183-.028-.273-.008-.03-.023-.058-.042-.082s-.045-.045-.073-.06c-.08-.036-.168-.053-.257-.048h-.224v.898h.224zM26.087 12.624h.619l.635 3.004h-.537l-.126-.693h-.552l-.129.693h-.545l.635-3.004zm.529 1.964l-.215-1.261-.215 1.261h.431zM27.854 12.624h.403l.772 1.714v-1.714h.478v3.004h-.384l-.777-1.789v1.789h-.494l.001-3.004zM30.628 14.483l-.642-1.854h.54l.392 1.191.368-1.191h.529l-.634 1.854v1.145h-.553v-1.145zM16.976 16.942v.157h-.47v1.221h-.197v-1.221h-.472v-.157h1.14zM18.45 18.32h-.152c-.015.001-.031-.004-.043-.013-.012-.008-.02-.019-.025-.032l-.136-.327h-.652l-.136.327c-.004.014-.011.026-.021.037-.012.009-.027.014-.043.013h-.152l.576-1.378h.201l.583 1.372zm-.954-.512h.544l-.23-.561c-.017-.042-.031-.086-.043-.13-.008.026-.015.051-.022.073l-.021.058-.228.56zM19.443 18.184c.036.002.072.002.108 0 .031-.003.062-.009.092-.016.028-.007.056-.015.083-.025.025-.01.051-.022.077-.034v-.31h-.23c-.006 0-.011 0-.017-.002s-.01-.005-.014-.009c-.004-.003-.007-.007-.009-.011s-.003-.009-.003-.014v-.106h.447v.528c-.037.025-.075.047-.115.065s-.084.035-.128.047c-.047.013-.095.023-.144.028-.056.006-.112.009-.168.009-.099.001-.198-.017-.29-.051-.086-.033-.165-.082-.23-.144-.064-.063-.115-.137-.149-.218a.75599.75599 0 01-.053-.286c-.001-.098.016-.196.052-.288.033-.082.084-.156.149-.218s.144-.111.23-.143c.099-.035.203-.053.309-.051.054 0 .107.004.16.012.047.007.093.019.137.035.04.014.079.033.115.055.035.022.069.046.1.072l-.055.085c-.004.008-.011.014-.019.019s-.017.007-.026.007c-.013 0-.025-.004-.036-.011a.73062.73062 0 01-.056-.033.45377.45377 0 00-.077-.037c-.034-.013-.07-.023-.106-.031a.88957.88957 0 00-.146-.012.621.621 0 00-.222.038c-.064.024-.122.062-.169.109-.048.05-.084.108-.107.171-.051.149-.051.31 0 .459.025.065.064.124.115.173.047.047.105.084.168.109.073.024.151.033.228.027zM21.28 18.162h.629v.157h-.822v-1.378h.197l-.005 1.221zM22.564 18.319h-.197v-1.378h.197v1.378zM23.297 16.948c.012.006.022.015.03.025l.842 1.039a.40054.40054 0 010-.049v-1.027h.172v1.383h-.099c-.015.001-.029-.002-.043-.008-.012-.007-.023-.016-.031-.026l-.841-1.037v1.072h-.165v-1.378h.103c.011 0 .022.002.032.007zM25.791 16.942v.152h-.698v.455h.566v.146h-.566v.47h.698v.152h-.901v-1.375h.901zM5.143 8.433l8.75 2.352v8.242l-8.75-2.351V8.433zm-.561-.703v9.346l9.871 2.654v-9.345L4.582 7.73z"/>
     <path d="M9.872 24.068L0 21.412v-9.345l9.872 2.655v9.346z"/>
     <path d="M4.745 8.327l8.636 2.322-3.672 3.478-8.637-2.324 3.674-3.477zm-.163-.597L0 12.067l9.872 2.655 4.581-4.337L4.582 7.73zM10.428 23.543l4.025-3.811-4.025-1.083v4.895z"/>
    </symbol>
    <symbol id="icon-clientthird" viewBox="0 0 41 43">
      <path d="M6.34566 41.7946C6.36067 41.795 6.37546 41.7982 6.38915 41.8041C6.40284 41.81 6.41516 41.8184 6.42539 41.8289L6.63116 42.0446C6.47144 42.2191 6.27403 42.3588 6.05243 42.4539C5.79293 42.5577 5.51326 42.6078 5.23192 42.6009C4.96755 42.6061 4.70488 42.5594 4.46028 42.4637C4.23964 42.3758 4.04139 42.2437 3.87898 42.0764C3.71321 41.9029 3.58553 41.6996 3.50344 41.4784C3.41355 41.2318 3.36916 40.9723 3.37226 40.7113C3.36861 40.4486 3.4166 40.1875 3.51373 39.9417C3.60359 39.7191 3.73912 39.5158 3.91241 39.3436C4.08805 39.1749 4.29815 39.0423 4.52973 38.9539C4.78306 38.8604 5.05283 38.8138 5.32452 38.8167C5.57689 38.8108 5.82792 38.8534 6.06272 38.9417C6.26644 39.0259 6.45349 39.1428 6.61573 39.2873L6.4434 39.5177C6.43149 39.5339 6.41669 39.548 6.39967 39.5593C6.37934 39.5726 6.35477 39.5787 6.33022 39.5765C6.30353 39.5747 6.27779 39.5663 6.25563 39.552L6.16303 39.4907L6.03443 39.4123C5.97891 39.3832 5.92133 39.3578 5.86209 39.3363C5.78581 39.3103 5.70756 39.2898 5.62803 39.275C5.52709 39.2573 5.42457 39.2491 5.32195 39.2505C5.12631 39.2482 4.93215 39.2832 4.75093 39.3534C4.58192 39.4185 4.42937 39.5171 4.30338 39.6427C4.17512 39.7762 4.07629 39.9329 4.01273 40.1034C3.94029 40.2985 3.90458 40.5043 3.90727 40.7113C3.90418 40.9214 3.93988 41.1305 4.01273 41.3289C4.07549 41.498 4.1725 41.6537 4.29823 41.7872C4.41604 41.9117 4.56206 42.0089 4.72521 42.0715C4.89311 42.1379 5.07333 42.1712 5.25507 42.1696C5.36005 42.1711 5.465 42.1646 5.56887 42.15C5.73848 42.1302 5.90118 42.0741 6.04472 41.9858C6.11671 41.9405 6.18467 41.8897 6.24792 41.8338C6.27436 41.8098 6.30914 41.7958 6.34566 41.7946Z"   />
      <path d="M12.2871 40.7108C12.2903 40.9709 12.2432 41.2292 12.1482 41.473C12.0644 41.6941 11.9323 41.8958 11.7608 42.0648C11.5892 42.2338 11.382 42.3662 11.1528 42.4533C10.6492 42.6363 10.0925 42.6363 9.58896 42.4533C9.36125 42.3648 9.15539 42.2321 8.98452 42.0636C8.81305 41.8916 8.68004 41.6882 8.59356 41.4657C8.40827 40.972 8.40827 40.4325 8.59356 39.9388C8.6813 39.7162 8.81414 39.5122 8.98452 39.3384C9.15685 39.1752 9.3626 39.0476 9.58896 38.9635C10.0919 38.7772 10.6499 38.7772 11.1528 38.9635C11.3813 39.0519 11.588 39.1846 11.7598 39.3531C11.9292 39.5235 12.0612 39.7243 12.1482 39.9437C12.2435 40.1892 12.2906 40.4492 12.2871 40.7108ZM11.747 40.7108C11.751 40.5028 11.718 40.2956 11.6492 40.0981C11.5916 39.929 11.4979 39.7729 11.374 39.6399C11.2534 39.5139 11.1049 39.4152 10.9393 39.3507C10.5734 39.2167 10.1684 39.2167 9.80245 39.3507C9.63684 39.4152 9.48836 39.5139 9.36776 39.6399C9.24215 39.7722 9.14747 39.9284 9.08997 40.0981C8.9591 40.4971 8.9591 40.9246 9.08997 41.3235C9.14803 41.4931 9.24265 41.6492 9.36776 41.7818C9.48851 41.907 9.637 42.0049 9.80245 42.0685C10.169 42.1991 10.5728 42.1991 10.9393 42.0685C11.1048 42.0049 11.2533 41.907 11.374 41.7818C11.4974 41.6484 11.591 41.4925 11.6492 41.3235C11.7183 41.1261 11.7513 40.9189 11.747 40.7108Z"   />
      <path d="M16.3408 41.3532L16.3948 41.4904C16.4154 41.4414 16.4334 41.3973 16.4539 41.3532C16.4736 41.3071 16.4959 41.2621 16.5208 41.2184L17.8352 38.942C17.8609 38.9028 17.884 38.8783 17.9098 38.8709C17.9447 38.8608 17.9813 38.8566 18.0178 38.8587H18.4062V42.5613H17.9458V39.8388C17.9458 39.8045 17.9458 39.7653 17.9458 39.7237C17.9433 39.6812 17.9433 39.6387 17.9458 39.5962L16.6237 41.9046C16.6069 41.9391 16.58 41.9684 16.5463 41.9888C16.5125 42.0092 16.4733 42.02 16.4334 42.0197H16.3588C16.3187 42.0203 16.2794 42.0097 16.2456 41.9892C16.2118 41.9687 16.185 41.9393 16.1684 41.9046L14.8078 39.5815C14.8078 39.6256 14.8078 39.6698 14.8078 39.7139C14.8078 39.758 14.8078 39.7972 14.8078 39.8315V42.5539H14.3628V38.8587H14.7512C14.7877 38.8566 14.8243 38.8608 14.8592 38.8709C14.8911 38.886 14.9165 38.9111 14.9312 38.942L16.2739 41.2209C16.3003 41.263 16.3227 41.3073 16.3408 41.3532Z"   />
      <path d="M21.2869 41.1692V42.5562H20.7725V38.8585H21.9196C22.1362 38.8546 22.3521 38.8818 22.5601 38.9394C22.7266 38.9843 22.881 39.0629 23.0128 39.1697C23.127 39.2699 23.2151 39.394 23.27 39.5324C23.3307 39.6832 23.3604 39.8438 23.3575 40.0053C23.3597 40.1675 23.3274 40.3284 23.2623 40.4782C23.2005 40.6201 23.1054 40.7466 22.9845 40.8482C22.8525 40.9595 22.6974 41.043 22.5292 41.0933C22.329 41.1542 22.1195 41.1832 21.9093 41.179L21.2869 41.1692ZM21.2869 40.7723H21.9093C22.0446 40.7739 22.1792 40.7549 22.308 40.7159C22.4143 40.6818 22.5123 40.6277 22.5961 40.5566C22.6734 40.4888 22.7332 40.405 22.771 40.3116C22.8131 40.2128 22.8341 40.107 22.8327 40.0004C22.8387 39.8976 22.8211 39.7948 22.7811 39.6992C22.7412 39.6035 22.6798 39.5174 22.6013 39.4466C22.4047 39.3004 22.1579 39.2296 21.9093 39.2481H21.2869V40.7723Z"   />
      <path d="M28.2007 42.5612H27.7943C27.7536 42.5626 27.7135 42.5505 27.6812 42.5268C27.652 42.5038 27.6291 42.4744 27.6143 42.4411L27.2645 41.5466H25.5077L25.145 42.4411C25.1317 42.4738 25.1095 42.5025 25.0807 42.5244C25.048 42.5495 25.007 42.5625 24.965 42.5612H24.5586L26.1019 38.8582H26.6369L28.2007 42.5612ZM25.6543 41.1863H27.105L26.4928 39.6791C26.4461 39.5658 26.4074 39.4495 26.3771 39.3311L26.3179 39.5247C26.2999 39.5836 26.2794 39.6375 26.2614 39.6816L25.6543 41.1863Z"   />
      <path d="M30.4233 38.8754C30.4541 38.8915 30.4805 38.9141 30.5005 38.9416L32.7511 41.7329C32.7511 41.6887 32.7511 41.6446 32.7511 41.603C32.7511 41.5613 32.7511 41.5197 32.7511 41.4804V38.8582H33.2115V42.5612H32.9543C32.9178 42.5622 32.8816 42.5547 32.8489 42.5391C32.8171 42.5215 32.7892 42.4982 32.7666 42.4705L30.5185 39.6817C30.521 39.7241 30.521 39.7666 30.5185 39.8091C30.5185 39.8508 30.5185 39.8875 30.5185 39.9218V42.5612H30.0581V38.8582H30.3308C30.3626 38.8574 30.3942 38.8632 30.4233 38.8754Z"   />
      <path d="M37.0028 41.0884V42.5588H36.4883V41.0884L35.0659 38.8584H35.5263C35.566 38.8561 35.6052 38.8674 35.6369 38.8902C35.6649 38.914 35.6884 38.9422 35.7064 38.9735L36.5964 40.4121C36.6324 40.4733 36.6632 40.5297 36.689 40.5836C36.7147 40.6375 36.7353 40.689 36.7533 40.7405L36.8201 40.5812C36.8451 40.5229 36.8743 40.4664 36.9076 40.4121L37.7847 38.9637C37.8031 38.9348 37.8256 38.9084 37.8516 38.8853C37.8821 38.8599 37.9217 38.8467 37.9622 38.8486H38.4277L37.0028 41.0884Z"   />
      <path d="M16.0859 32.6443C16.3097 32.6712 16.5361 32.6933 16.765 32.7129C20.2356 31.2337 23.1716 28.8127 25.206 25.7526C27.2404 22.6924 28.283 19.1289 28.2033 15.5073L24.3785 11.8633C25.1562 15.7191 24.7925 19.705 23.3279 23.3751C21.8634 27.0452 19.3559 30.2546 16.0859 32.6443Z"   />
      <path d="M14.7202 32.4748L14.8231 32.4944C18.3173 30.1132 20.9814 26.788 22.4708 22.9488C23.9601 19.1097 24.2063 14.9331 23.1774 10.9592L17.7296 5.76904C19.9331 10.0353 20.82 14.8098 20.2873 19.5374C19.7546 24.265 17.824 28.7514 14.7202 32.4748Z"   />
      <path d="M33.1959 19.7861C32.2704 23.7654 30.0225 27.3541 26.7861 30.0196C25.841 30.8023 24.8214 31.4996 23.7407 32.1025C26.3761 31.3646 28.7983 30.0598 30.8207 28.289C32.8432 26.5181 34.4117 24.3284 35.4054 21.8887L33.1959 19.7861Z"   />
      <path d="M32.3292 19.2002L29.1835 16.2031C29.1233 19.6201 28.1037 22.9594 26.2306 25.8739C24.3575 28.7885 21.6993 31.1718 18.5322 32.7764H18.5477C19.2534 32.7761 19.9586 32.736 20.6594 32.6563C23.6192 31.5053 26.2339 29.6742 28.2702 27.3262C30.3064 24.9782 31.7009 22.1865 32.3292 19.2002Z"   />
      <path d="M15.1757 3.5803L11.4229 0C8.06808 1.23513 5.18278 3.40643 3.14464 6.22973C1.1065 9.05304 0.0104686 12.3968 0 15.8234H0C0.0125737 19.6097 1.3502 23.2838 3.80116 26.2643C6.25213 29.2448 9.67642 31.3614 13.5321 32.2791C16.974 28.2838 18.9892 23.347 19.2847 18.186C19.5803 13.025 18.1409 7.90862 15.1757 3.5803Z"   />
      <path d="M41.0002 18.649C40.9867 14.1568 39.1076 9.85223 35.7735 6.67574C32.4394 3.49924 27.9213 1.70898 23.2062 1.69605C21.0274 1.6939 18.8671 2.07696 16.835 2.82576L39.8119 24.7166C40.5987 22.7815 41.0016 20.7241 41.0002 18.649Z"   />
    </symbol>
    <symbol id="icon-clock" viewBox="0 0 32 32">
      <path fill="var(--color1, #212121)" d="M31.297 15.301C31.295 6.849 24.442-.002 15.989 0S.686 6.855.688 15.308c.001 6.658 4.307 12.551 10.649 14.576.061.019.124.029.187.029.121 0 .239-.032.342-.094.135-.08.236-.207.283-.356l3.865-12.25c1.057-.005 1.909-.866 1.903-1.923s-.866-1.909-1.923-1.903c-.284.001-.565.067-.82.191l-5.106-5.107c-.253-.245-.657-.238-.902.016-.239.247-.239.639 0 .886l5.103 5.109c-.392.799-.168 1.764.536 2.309l-3.683 11.673C3.844 25.783.118 17.71 2.799 10.432S13.553-.572 20.831 2.109s11.004 10.754 8.323 18.032c-1.31 3.556-4.001 6.431-7.462 7.973l-.398-1.874c-.073-.344-.411-.565-.756-.492-.109.023-.209.074-.292.148l-3.837 3.426c-.263.234-.287.637-.052.9.076.085.174.149.283.184l4.899 1.563c.335.108.694-.077.802-.412.034-.106.04-.219.017-.328l-.391-1.839c5.664-2.388 9.342-7.942 9.329-14.089zm-15.305-.637c.352 0 .638.286.638.638s-.286.638-.638.638c-.352 0-.638-.285-.638-.638s.285-.638.638-.638zm2.101 14.864l2.184-1.948.603 2.84-2.787-.892z"/>
      <path fill="var(--color2, #2196f3)" d="M15.354 3.185V4.46c0 .352.285.638.638.638s.638-.285.638-.638V3.185c0-.352-.286-.638-.638-.638s-.638.286-.638.638zM3.876 14.664c-.352 0-.638.286-.638.638s.285.638.638.638h1.275c.352 0 .638-.285.638-.638s-.285-.638-.638-.638H3.876zM28.108 15.939c.352 0 .638-.285.638-.638s-.285-.638-.638-.638h-1.275c-.352 0-.638.286-.638.638s.286.638.638.638h1.275z"/>
    </symbol>
    <symbol id="icon-diagrama" viewBox="0 0 32 32">
      <path fill="var(--color2, #2196f3)" d="M14.925 14.965h1.066v4.798h-1.066v-4.797zM19.19 17.097h1.066v2.665H19.19v-2.665zM10.661 18.696h1.066v1.066h-1.066v-1.066zM7.463 18.163h1.066v1.599H7.463v-1.599z"/>
      <path fill="var(--color1, #212121)" d="M1.599 28.291h25.587c.883 0 1.599-.716 1.599-1.599V24.56c0-.883-.716-1.599-1.599-1.599h-.533V9.668L29.681 6.8c.703.346 1.553.136 2.013-.499s.396-1.508-.152-2.068-1.42-.644-2.065-.198c-.644.446-.873 1.292-.542 2.002L26.654 8.2V6.97c0-.883-.716-1.599-1.599-1.599H3.733c-.883 0-1.599.716-1.599 1.599v15.992h-.533c-.883 0-1.599.716-1.599 1.599v2.132c0 .883.716 1.599 1.599 1.599zM30.384 4.837c.294 0 .533.239.533.533s-.239.533-.533.533c-.294 0-.533-.239-.533-.533s.239-.533.533-.533zM3.198 6.969c0-.294.239-.533.533-.533h21.322c.294 0 .533.239.533.533v2.239l-1.066 1.013V8.035c0-.294-.239-.533-.533-.533H4.797c-.294 0-.533.239-.533.533v13.326c0 .294.239.533.533.533h19.19c.294 0 .533-.239.533-.533v-9.674l1.066-1.01v12.284H3.198V6.969zm4.798 6.929c-.721-.002-1.354.478-1.546 1.174s.105 1.433.725 1.801c.62.368 1.41.276 1.928-.226l1.853.93c.215.108.476.057.636-.123l3.939-4.431 3.872 2.901c.208.156.498.139.686-.039l3.365-3.188v8.131H5.33V8.568h18.124v2.66L19.683 14.8l-3.904-2.927c-.222-.166-.534-.135-.718.072l-3.993 4.493-1.493-.746c.011-.064.018-.129.02-.193 0-.883-.716-1.599-1.599-1.599zm.533 1.6c0 .294-.239.533-.533.533s-.533-.239-.533-.533c0-.294.239-.533.533-.533s.533.239.533.533zm3.198 8.528h5.331v.533c0 .294-.239.533-.533.533h-4.264c-.294 0-.533-.239-.533-.533v-.533zm-10.661.534c0-.294.239-.533.533-.533h9.062v.533c0 .883.716 1.599 1.599 1.599h4.264c.883 0 1.599-.716 1.599-1.599v-.533h9.062c.294 0 .533.239.533.533v2.132c0 .294-.239.533-.533.533H1.598c-.294 0-.533-.239-.533-.533V24.56z"/>
    </symbol>
    <symbol id="icon-facebook" viewBox="0 0 32 32">
      <path  d="M21.329 5.313h2.921V.225C23.746.156 22.013 0 19.994 0c-4.212 0-7.097 2.649-7.097 7.519V12H8.249v5.688h4.648V32h5.699V17.689h4.46l.708-5.688h-5.169V8.082c.001-1.644.444-2.769 2.735-2.769z"/>
    </symbol>
    <symbol id="icon-send" viewBox="0 0 32 32">
      <path fill="var(--color4, #fff)" d="M32 0L0 18l10.227 3.788L26 7 14.002 23.186l.01.004-.012-.004V32l5.735-6.691L27 28l5-28z"/>
    </symbol>
    <symbol id="icon-instagram" viewBox="0 0 32 32">
      <path  d="M31.969 9.408c-.075-1.7-.35-2.869-.744-3.882-.406-1.075-1.032-2.038-1.851-2.838-.8-.813-1.769-1.444-2.832-1.844C25.523.45 24.36.175 22.66.1 20.947.019 20.403 0 16.059 0s-4.888.019-6.595.094c-1.7.075-2.869.35-3.882.744-1.075.406-2.038 1.031-2.838 1.85C1.931 3.488 1.3 4.457.9 5.52.506 6.539.231 7.702.156 9.402c-.081 1.713-.1 2.257-.1 6.601s.019 4.888.094 6.595c.075 1.7.35 2.869.744 3.882.406 1.075 1.038 2.038 1.85 2.838.8.813 1.769 1.444 2.832 1.844 1.019.394 2.182.669 3.882.744 1.706.075 2.25.094 6.595.094s4.888-.019 6.595-.094c1.7-.075 2.869-.35 3.882-.744 2.151-.832 3.851-2.532 4.682-4.682.394-1.019.669-2.182.744-3.882.075-1.707.094-2.251.094-6.595s-.006-4.888-.081-6.595zm-2.882 13.065c-.069 1.563-.331 2.407-.55 2.969-.538 1.394-1.644 2.5-3.038 3.038-.563.219-1.413.481-2.969.55-1.688.075-2.194.094-6.464.094s-4.782-.019-6.464-.094c-1.563-.069-2.407-.331-2.969-.55-.694-.256-1.325-.663-1.838-1.194-.531-.519-.938-1.144-1.194-1.838-.219-.563-.481-1.413-.55-2.969-.075-1.688-.094-2.194-.094-6.464s.019-4.782.094-6.464c.069-1.563.331-2.407.55-2.969.256-.694.663-1.325 1.2-1.838.519-.531 1.144-.938 1.838-1.194.563-.219 1.413-.481 2.969-.55 1.688-.075 2.194-.094 6.464-.094 4.276 0 4.782.019 6.464.094 1.563.069 2.407.331 2.969.55.694.256 1.325.662 1.838 1.194.531.519.938 1.144 1.194 1.838.219.563.481 1.413.55 2.969.075 1.688.094 2.194.094 6.464s-.019 4.77-.094 6.458z"/>
      <path  d="M16.059 7.783c-4.538 0-8.22 3.682-8.22 8.22s3.682 8.22 8.22 8.22c4.539 0 8.22-3.682 8.22-8.22s-3.682-8.22-8.22-8.22zm0 13.552c-2.944 0-5.332-2.388-5.332-5.332s2.388-5.332 5.332-5.332 5.332 2.388 5.332 5.332-2.388 5.332-5.332 5.332zM26.524 7.458c0 1.06-.859 1.919-1.919 1.919s-1.919-.859-1.919-1.919.859-1.919 1.919-1.919 1.919.859 1.919 1.919z"/>
    </symbol>
    <symbol id="icon-linkedin" viewBox="0 0 32 32">
      <path  d="M31.992 32v-.001H32V20.263c0-5.741-1.236-10.164-7.948-10.164-3.227 0-5.392 1.771-6.276 3.449h-.093v-2.913h-6.364v21.364h6.627V21.42c0-2.785.528-5.479 3.977-5.479 3.399 0 3.449 3.179 3.449 5.657v10.401h6.62zM.528 10.636h6.635V32H.528V10.636zM3.843 0C1.722 0 0 1.721 0 3.843s1.721 3.879 3.843 3.879c2.121 0 3.843-1.757 3.843-3.879C7.685 1.722 5.963 0 3.843 0z"/>
    </symbol>
    <symbol id="icon-mail" viewBox="0 0 16 12">
    <path d="M14.5 0H1.50001C0.672854 0 0 0.628107 0 1.40026V9.80173C0 10.5739 0.672854 11.202 1.50001 11.202H14.5C15.3271 11.202 16 10.5739 16 9.80173V1.40026C16 0.628107 15.3271 0 14.5 0ZM14.5 0.933493C14.5679 0.933493 14.6325 0.94665 14.6916 0.969628L8 6.38361L1.30833 0.969628C1.36742 0.946681 1.43204 0.933493 1.49998 0.933493H14.5ZM14.5 10.2685H1.50001C1.22414 10.2685 0.999996 10.0593 0.999996 9.80169V1.95587L7.67236 7.35402C7.76661 7.43013 7.8833 7.46798 8 7.46798C8.1167 7.46798 8.23339 7.43016 8.32764 7.35402L15 1.95587V9.80173C15 10.0593 14.7759 10.2685 14.5 10.2685Z"/>
    </symbol>
    <symbol id="icon-phone" viewBox="0 0 10 15">
     <path d="M8.5 0H1.5C0.672848 0 0 0.628103 0 1.40025V13.5357C0 14.3079 0.672848 14.936 1.5 14.936H8.5C9.32715 14.936 10 14.3079 10 13.5357V1.40025C10 0.628103 9.32715 0 8.5 0ZM1.5 0.933498H8.5C8.77588 0.933498 9 1.14271 9 1.40025V11.202H1V1.40025C1 1.14271 1.22412 0.933498 1.5 0.933498ZM8.5 14.0025H1.5C1.22412 14.0025 1 13.7933 1 13.5357V12.1355H9V13.5357C9 13.7933 8.77588 14.0025 8.5 14.0025Z" />
     <path d="M2.35355 12.7389C2.54882 12.9213 2.54882 13.2169 2.35355 13.3992C2.15828 13.5816 1.84172 13.5816 1.64645 13.3992C1.45118 13.2169 1.45118 12.9213 1.64645 12.7389C1.84172 12.5566 2.15828 12.5566 2.35355 12.7389Z"/>
    </symbol>
    <symbol id="icon-twitter" viewBox="0 0 32 32">
      <path  d="M32 6.078c-1.19.522-2.458.868-3.78 1.036 1.36-.812 2.398-2.088 2.886-3.626-1.268.756-2.668 1.29-4.16 1.588C25.742 3.794 24.026 3 22.154 3c-3.632 0-6.556 2.948-6.556 6.562 0 .52.044 1.02.152 1.496-5.454-.266-10.28-2.88-13.522-6.862-.566.982-.898 2.106-.898 3.316 0 2.272 1.17 4.286 2.914 5.452-1.054-.02-2.088-.326-2.964-.808v.072c0 3.188 2.274 5.836 5.256 6.446-.534.146-1.116.216-1.72.216-.42 0-.844-.024-1.242-.112.85 2.598 3.262 4.508 6.13 4.57-2.232 1.746-5.066 2.798-8.134 2.798-.538 0-1.054-.024-1.57-.09C2.906 27.93 6.35 29 10.064 29c12.072 0 18.672-10 18.672-18.668 0-.29-.01-.57-.024-.848C30.014 8.56 31.108 7.406 32 6.078z"/>
    </symbol>
    <symbol  id="icon-person"  viewBox="0 0 18 18">
     <path d="M9 9C10.6575 9 12 7.6575 12 6C12 4.3425 10.6575 3 9 3C7.3425 3 6 4.3425 6 6C6 7.6575 7.3425 9 9 9ZM9 10.5C6.9975 10.5 3 11.505 3 13.5V14.25C3 14.6625 3.3375 15 3.75 15H14.25C14.6625 15 15 14.6625 15 14.25V13.5C15 11.505 11.0025 10.5 9 10.5Z" />
    </symbol>
    <symbol id="icon-telefon" viewBox="0 0 18 18">
    <path d="M13.9958 11.1226L12.1576 10.9128C11.7162 10.8621 11.282 11.0141 10.9708 11.3253L9.63924 12.6568C7.59123 11.6147 5.91229 9.94302 4.8702 7.88776L6.209 6.54895C6.52018 6.23776 6.67216 5.80355 6.6215 5.36211L6.41163 3.53843C6.32479 2.80751 5.70966 2.25751 4.97151 2.25751H3.71955C2.90179 2.25751 2.22153 2.93777 2.27219 3.75553C2.65574 9.93578 7.59847 14.8713 13.7714 15.2548C14.5892 15.3055 15.2695 14.6252 15.2695 13.8075V12.5555C15.2767 11.8246 14.7267 11.2095 13.9958 11.1226Z" />
    </symbol>
    <symbol id="icon-email" viewBox="0 0 18 18">
    <path d="M15 3H3C2.175 3 1.5075 3.675 1.5075 4.5L1.5 13.5C1.5 14.325 2.175 15 3 15H15C15.825 15 16.5 14.325 16.5 13.5V4.5C16.5 3.675 15.825 3 15 3ZM14.7 6.1875L9.3975 9.5025C9.1575 9.6525 8.8425 9.6525 8.6025 9.5025L3.3 6.1875C3.1125 6.0675 3 5.865 3 5.6475C3 5.145 3.5475 4.845 3.975 5.1075L9 8.25L14.025 5.1075C14.4525 4.845 15 5.145 15 5.6475C15 5.865 14.8875 6.0675 14.7 6.1875Z" />
    </symbol>
    <symbol id="icon-x" viewBox="0 0 18 18">
    <path d="M15 5.10786L13.8921 4L9.5 8.39214L5.10786 4L4 5.10786L8.39214 9.5L4 13.8921L5.10786 15L9.5 10.6079L13.8921 15L15 13.8921L10.6079 9.5L15 5.10786Z"/>
    </symbol>
  </defs>
</svg>
